<svg width="42" height="42" viewBox="0 0 42 42" fill="none" xmlns="http://www.w3.org/2000/svg">
<circle cx="21" cy="21" r="21" fill="#F4F7FE"/>
<path d="M22.5109 28.3302H18.8009C18.6993 28.3302 18.623 28.254 18.623 28.1777V14.9895C18.623 14.9641 18.623 14.9387 18.6485 14.9133L20.5034 11.1016C20.5289 11.0508 20.5797 11 20.6559 11C20.7067 11 20.783 11.0254 20.8084 11.1016L22.6634 14.9133C22.6634 14.9387 22.6888 14.9641 22.6888 14.9895V28.1777C22.6888 28.2794 22.6125 28.3302 22.5109 28.3302ZM18.9788 27.9999H22.3584V15.0149L20.6559 11.5336L18.9534 15.0149V27.9999H18.9788Z" fill="#7B61FF"/>
<path d="M21.7741 15.6755C21.7232 15.6755 21.6978 15.6501 21.647 15.6247L21.2404 15.2181L20.8339 15.6247C20.783 15.6755 20.6814 15.701 20.6306 15.6501L19.9953 15.1927L19.6141 15.5231C19.5633 15.5739 19.4871 15.5739 19.4109 15.5485L18.6739 15.1165C18.5977 15.0657 18.5723 14.964 18.6231 14.8878C18.6739 14.8116 18.7756 14.7862 18.8518 14.837L19.4617 15.2181L19.8683 14.8624C19.9191 14.8116 20.0207 14.8116 20.0715 14.8624L20.7068 15.3198L21.1388 14.8878C21.1642 14.8624 21.215 14.837 21.2658 14.837C21.3167 14.837 21.3421 14.8624 21.3929 14.8878L21.8249 15.3198L22.4602 14.8624C22.5364 14.8116 22.638 14.837 22.6889 14.8878C22.7397 14.964 22.7143 15.0657 22.6634 15.1165L21.9265 15.6501C21.8503 15.6755 21.8249 15.6755 21.7741 15.6755Z" fill="#7B61FF"/>
<path d="M21.6979 28.3302C21.5963 28.3302 21.52 28.254 21.52 28.1777V15.4469C21.52 15.3453 21.5963 15.2944 21.6979 15.2944C21.7995 15.2944 21.8758 15.3707 21.8758 15.4469V28.1777C21.8758 28.2794 21.7995 28.3302 21.6979 28.3302Z" fill="#7B61FF"/>
<path d="M20.7834 28.3303C20.6817 28.3303 20.6309 28.254 20.6055 28.1778L20.5547 15.3961C20.5547 15.2945 20.6309 15.2183 20.7072 15.2183C20.8088 15.2183 20.8596 15.2945 20.885 15.3707L20.9359 28.1524C20.9613 28.2794 20.885 28.3303 20.7834 28.3303Z" fill="#7B61FF"/>
<path d="M19.5636 28.3304C19.462 28.3304 19.3857 28.2541 19.3857 28.1779V15.2438C19.3857 15.1421 19.462 15.0913 19.5636 15.0913C19.6653 15.0913 19.7415 15.1675 19.7415 15.2438V28.1779C19.7415 28.2795 19.6653 28.3304 19.5636 28.3304Z" fill="#7B61FF"/>
<path d="M21.1387 31.1001H20.1731C19.3346 31.1001 18.623 30.414 18.623 29.55V28.1779C18.623 28.0762 18.6993 28.0254 18.8009 28.0254H22.5109C22.6125 28.0254 22.6888 28.1016 22.6888 28.1779V29.55C22.6888 30.414 22.0027 31.1001 21.1387 31.1001ZM18.9788 28.3303V29.55C18.9788 30.2107 19.5124 30.7698 20.1985 30.7698H21.1641C21.8248 30.7698 22.3839 30.2361 22.3839 29.55V28.3303H18.9788Z" fill="#7B61FF"/>
<path d="M15.5739 14.3289H13.0836C12.982 14.3289 12.9312 14.2527 12.9312 14.1764V11.6608C12.9312 11.5591 13.0074 11.5083 13.0836 11.5083H15.5739C15.6755 11.5083 15.7263 11.5845 15.7263 11.6608V14.1764C15.7518 14.2527 15.6755 14.3289 15.5739 14.3289ZM13.2361 13.9986H15.396V11.8132H13.2361V13.9986Z" fill="#7B61FF"/>
<path d="M28.2033 31.0745H25.713C25.6114 31.0745 25.5352 30.9983 25.5352 30.922V28.4064C25.5352 28.3047 25.6114 28.2539 25.713 28.2539H28.2033C28.3049 28.2539 28.3812 28.3301 28.3812 28.4064V30.922C28.3812 30.9983 28.3049 31.0745 28.2033 31.0745ZM25.8655 30.7442H28.0254V28.5842H25.8655V30.7442Z" fill="#7B61FF"/>
<path d="M28.2033 14.3289H25.713C25.6114 14.3289 25.5352 14.2527 25.5352 14.1764V11.6608C25.5352 11.5591 25.6114 11.5083 25.713 11.5083H28.2033C28.3049 11.5083 28.3812 11.5845 28.3812 11.6608V14.1764C28.3812 14.2527 28.3049 14.3289 28.2033 14.3289ZM25.8655 13.9986H28.0254V11.8132H25.8655V13.9986Z" fill="#7B61FF"/>
<path d="M15.5739 31.0745H13.0836C12.982 31.0745 12.9312 30.9983 12.9312 30.922V28.4064C12.9312 28.3047 13.0074 28.2539 13.0836 28.2539H15.5739C15.6755 28.2539 15.7263 28.3301 15.7263 28.4064V30.922C15.7518 30.9983 15.6755 31.0745 15.5739 31.0745ZM13.2361 30.7442H15.396V28.5842H13.2361V30.7442Z" fill="#7B61FF"/>
<path d="M25.7128 29.8295H22.6381C22.5364 29.8295 22.4602 29.7533 22.4602 29.677C22.4602 29.5754 22.5364 29.5246 22.6381 29.5246H25.7128C25.8144 29.5246 25.8907 29.6008 25.8907 29.677C25.8653 29.7533 25.789 29.8295 25.7128 29.8295ZM18.7502 29.8295H15.5739C15.4722 29.8295 15.4214 29.7533 15.4214 29.677C15.4214 29.5754 15.4976 29.5246 15.5739 29.5246H18.7502C18.8519 29.5246 18.9281 29.6008 18.9281 29.677C18.9027 29.7533 18.8519 29.8295 18.7502 29.8295ZM26.9579 28.5844C26.8563 28.5844 26.7801 28.5081 26.7801 28.4319V22.9686C26.7801 22.8669 26.8563 22.8161 26.9579 22.8161C27.0596 22.8161 27.1358 22.8923 27.1358 22.9686V28.4319C27.1104 28.5081 27.0596 28.5844 26.9579 28.5844ZM14.3287 28.5844C14.2271 28.5844 14.1763 28.5081 14.1763 28.4319V22.9686C14.1763 22.8669 14.2525 22.8161 14.3287 22.8161C14.4304 22.8161 14.4812 22.8923 14.4812 22.9686V28.4319C14.5066 28.5081 14.4304 28.5844 14.3287 28.5844ZM26.9579 19.0807C26.8563 19.0807 26.7801 19.0045 26.7801 18.9282V14.1764C26.7801 14.0748 26.8563 14.0239 26.9579 14.0239C27.0596 14.0239 27.1358 14.1002 27.1358 14.1764V18.9282C27.1104 19.0045 27.0596 19.0807 26.9579 19.0807ZM14.3287 19.0807C14.2271 19.0807 14.1763 19.0045 14.1763 18.9282V14.1764C14.1763 14.0748 14.2525 14.0239 14.3287 14.0239C14.4304 14.0239 14.4812 14.1002 14.4812 14.1764V18.9282C14.5066 19.0045 14.4304 19.0807 14.3287 19.0807ZM25.7128 13.0837H21.52C21.4184 13.0837 21.3421 13.0075 21.3421 12.9313C21.3421 12.855 21.4184 12.7788 21.52 12.7788H25.7128C25.8144 12.7788 25.8907 12.855 25.8907 12.9313C25.8907 13.0075 25.789 13.0837 25.7128 13.0837ZM19.8175 13.0837H15.5739C15.4722 13.0837 15.4214 13.0075 15.4214 12.9313C15.4214 12.855 15.4976 12.7788 15.5739 12.7788H19.7921C19.8937 12.7788 19.9699 12.855 19.9699 12.9313C19.9699 13.0075 19.8937 13.0837 19.8175 13.0837Z" fill="#7B61FF"/>
<path d="M30.1852 23.0957H22.5365C22.4349 23.0957 22.3587 23.0195 22.3587 22.9433V18.9283C22.3587 18.8267 22.4349 18.7759 22.5365 18.7759H30.1852C30.2868 18.7759 30.3631 18.8521 30.3631 18.9283V22.9433C30.3377 23.0449 30.2614 23.0957 30.1852 23.0957ZM22.689 22.7654H30.0073V19.0808H22.689V22.7654ZM18.8011 23.0957H11.1525C11.0508 23.0957 11 23.0195 11 22.9433V18.9283C11 18.8267 11.0762 18.7759 11.1525 18.7759H18.8011C18.9028 18.7759 18.979 18.8521 18.979 18.9283V22.9433C18.979 23.0449 18.9028 23.0957 18.8011 23.0957ZM11.3049 22.7654H18.6233V19.0808H11.3049V22.7654Z" fill="#7B61FF"/>
<path d="M28.4064 23.0957C28.3048 23.0957 28.2285 23.0195 28.2285 22.9432V20.7833C28.2285 20.6817 28.3048 20.6309 28.4064 20.6309C28.508 20.6309 28.5843 20.7071 28.5843 20.7833V22.9432C28.5843 23.0449 28.508 23.0957 28.4064 23.0957Z" fill="#7B61FF"/>
<path d="M26.8312 23.0955C26.7295 23.0955 26.6533 23.0193 26.6533 22.9431V21.6217C26.6533 21.5201 26.7295 21.4692 26.8312 21.4692C26.9328 21.4692 27.0091 21.5455 27.0091 21.6217V22.9431C27.0091 23.0447 26.9328 23.0955 26.8312 23.0955Z" fill="#7B61FF"/>
<path d="M25.2809 23.0957C25.1793 23.0957 25.103 23.0195 25.103 22.9432V20.7833C25.103 20.6817 25.1793 20.6309 25.2809 20.6309C25.3825 20.6309 25.4588 20.7071 25.4588 20.7833V22.9432C25.4334 23.0449 25.3571 23.0957 25.2809 23.0957Z" fill="#7B61FF"/>
<path d="M23.7052 23.0955C23.6036 23.0955 23.5273 23.0193 23.5273 22.9431V21.6217C23.5273 21.5201 23.6036 21.4692 23.7052 21.4692C23.8069 21.4692 23.8831 21.5455 23.8831 21.6217V22.9431C23.8577 23.0447 23.7815 23.0955 23.7052 23.0955Z" fill="#7B61FF"/>
<path d="M17.4288 23.0955C17.3272 23.0955 17.2764 23.0193 17.2764 22.9431V21.6217C17.2764 21.5201 17.3526 21.4692 17.4288 21.4692C17.5305 21.4692 17.6067 21.5455 17.6067 21.6217V22.9431C17.5813 23.0447 17.5051 23.0955 17.4288 23.0955Z" fill="#7B61FF"/>
<path d="M15.8536 23.0957C15.752 23.0957 15.7012 23.0195 15.7012 22.9432V20.7833C15.7012 20.6817 15.7774 20.6309 15.8536 20.6309C15.9299 20.6309 16.0061 20.7071 16.0061 20.7833V22.9432C16.0315 23.0449 15.9553 23.0957 15.8536 23.0957Z" fill="#7B61FF"/>
<path d="M14.278 23.0955C14.1763 23.0955 14.1255 23.0193 14.1255 22.9431V21.6217C14.1255 21.5201 14.2017 21.4692 14.278 21.4692C14.3796 21.4692 14.4304 21.5455 14.4304 21.6217V22.9431C14.4558 23.0447 14.3796 23.0955 14.278 23.0955Z" fill="#7B61FF"/>
<path d="M12.7282 23.0957C12.6265 23.0957 12.5757 23.0195 12.5757 22.9432V20.7833C12.5757 20.6817 12.6519 20.6309 12.7282 20.6309C12.8044 20.6309 12.8806 20.7071 12.8806 20.7833V22.9432C12.8806 23.0449 12.8044 23.0957 12.7282 23.0957Z" fill="#7B61FF"/>
</svg>
