<svg width="42" height="42" viewBox="0 0 42 42" fill="none" xmlns="http://www.w3.org/2000/svg">
<circle cx="21" cy="21" r="21" fill="#F4F7FE"/>
<path d="M25.8265 28.9223C25.9583 28.9917 26.1113 29.0148 26.258 28.9896C26.6277 28.9265 26.8764 28.5797 26.8126 28.214L25.8265 28.9223ZM25.8265 28.9223L21 26.4127L25.8265 28.9223ZM23.7985 17.3222L23.8569 17.4394L23.9866 17.458L29.3819 18.2335C29.382 18.2335 29.3821 18.2336 29.3823 18.2336C29.622 18.269 29.7801 18.4856 29.745 18.7106L29.7446 18.7134C29.7315 18.8045 29.688 18.8888 29.6204 18.9543L25.7168 22.7183L25.6213 22.8104L25.644 22.941L26.5663 28.2567L26.5664 28.2569C26.6058 28.4832 26.4523 28.7028 26.2159 28.7431L26.2156 28.7432C26.1219 28.7593 26.0249 28.7442 25.943 28.7011L25.9419 28.7005L21.1154 26.1908L21 26.1309L20.8847 26.1908L16.0582 28.7005L16.0578 28.7007C15.9868 28.7378 15.9063 28.7546 15.8258 28.7489C15.7453 28.7432 15.6682 28.7154 15.6033 28.6688C15.5385 28.6222 15.4885 28.5588 15.4586 28.4861C15.4288 28.4135 15.4202 28.3341 15.4337 28.257L15.4338 28.2567L16.3561 22.941L16.3788 22.8104L16.2833 22.7183L12.3792 18.9538L12.3792 18.9538C12.2977 18.8752 12.2515 18.7684 12.25 18.657C12.2485 18.5458 12.2917 18.4379 12.3709 18.3573C12.437 18.2907 12.523 18.247 12.6168 18.2337L12.6174 18.2336L18.0135 17.458L18.1432 17.4394L18.2016 17.3222L20.6132 12.4869C20.6133 12.4868 20.6134 12.4866 20.6135 12.4864C20.7195 12.2773 20.9788 12.1898 21.1921 12.294L21.1924 12.2942C21.2771 12.3354 21.345 12.4029 21.3862 12.4855L21.3863 12.4857L23.7985 17.3222ZM17.9779 17.2106L12.5819 17.9862L20.3901 12.3741L17.9779 17.2106Z" stroke="#7B61FF" stroke-width="0.5"/>
</svg>
