<svg width="42" height="42" viewBox="0 0 42 42" fill="none" xmlns="http://www.w3.org/2000/svg">
<circle cx="21" cy="21" r="21" fill="#F4F7FE"/>
<path fill-rule="evenodd" clip-rule="evenodd" d="M13.1973 10H14.6932L15.2173 11.1775H26.7933L27.4485 10H28.8027L31 12.1941V29.4625L29.7691 30.9988L28.7704 29.5742H27.5379L27.0139 30.8824H25.4984L25.1054 30.3591H16.784L16.522 30.8824H15.0053L14.2192 29.5742H13.2375L12.3807 31L11 29.4681V12.1941L13.1973 10ZM13.3422 10.3423L11.3468 12.3347V29.3379L12.3245 30.4226L13.04 29.2318H14.4167L15.2028 30.5401H15.8478V11.5198H14.9908L14.4667 10.3423H13.3422ZM16.1946 11.5198V30.5401H16.3065L16.5686 30.0168H20.7617L20.826 11.5198H16.1946ZM21.1728 11.5198L21.1085 30.0168H25.28L25.673 30.5401H25.6744V11.5198H21.1728ZM26.0212 11.5198V30.5401H26.778L27.3021 29.2318H28.9522L29.7877 30.4237L30.6532 29.3435V12.3347L28.6578 10.3423H27.6537L26.9986 11.5198H26.0212Z" fill="#7B61FF"/>
</svg>
