<svg width="42" height="42" viewBox="0 0 42 42" fill="none" xmlns="http://www.w3.org/2000/svg">
<circle cx="21" cy="21" r="21" fill="#F4F7FE"/>
<path d="M29.5838 18.6752H17.7552C17.5103 18.6752 17.3389 18.4752 17.3389 18.2502V17.7502C17.3389 17.5252 17.5348 17.3252 17.7552 17.3252H29.5838C29.8287 17.3252 30.0001 17.5252 30.0001 17.7502V18.2502C30.0001 18.5002 29.8042 18.6752 29.5838 18.6752ZM17.7552 17.7002C17.7062 17.7002 17.6817 17.7252 17.6817 17.7502V18.2502C17.6817 18.2752 17.7062 18.3002 17.7552 18.3002H29.5838C29.6327 18.3002 29.6572 18.2752 29.6572 18.2502V17.7502C29.6572 17.7252 29.6327 17.7002 29.5838 17.7002H17.7552Z" fill="#7B61FF"/>
<path d="M21.7469 30.65H13.3959C13.298 30.65 13.2245 30.575 13.2245 30.5C13.2245 30.425 13.2 30.375 13.2 30.3V21.725H12.9796C12.4408 21.725 12 21.275 12 20.725V11C12 10.45 12.4408 10 12.9796 10H16.702C17.2408 10 17.6816 10.45 17.6816 11V18.325H29.8286C29.9265 18.325 30 18.4 30 18.5C30 20.8 29.1184 22.725 27.4286 24.1C25.9837 25.275 24.0245 26 21.9184 26.1V30.45C21.9184 30.575 21.8204 30.65 21.7469 30.65ZM13.5673 30.275H21.5755V25.925C21.5755 25.825 21.649 25.75 21.7469 25.75C25.6408 25.625 29.5592 23.375 29.6571 18.675H17.5102C17.4122 18.675 17.3388 18.6 17.3388 18.5V11C17.3388 10.65 17.0694 10.375 16.7265 10.375H13.0041C12.6612 10.375 12.3918 10.65 12.3918 11V20.725C12.3918 21.075 12.6612 21.35 13.0041 21.35H13.3959C13.4939 21.35 13.5673 21.425 13.5673 21.525V30.275Z" fill="#7B61FF"/>
<path d="M17.4859 21.6996H13.3716C13.2737 21.6996 13.2002 21.6246 13.2002 21.5246C13.2002 21.4246 13.2737 21.3496 13.3716 21.3496H17.4859C17.5839 21.3496 17.6573 21.4246 17.6573 21.5246C17.6818 21.6246 17.5839 21.6996 17.4859 21.6996Z" fill="#7B61FF"/>
<path d="M21.7471 30.6498H13.396C13.2981 30.6498 13.2246 30.5748 13.2246 30.4748C13.2246 30.3748 13.2981 30.2998 13.396 30.2998H21.7471C21.845 30.2998 21.9185 30.3748 21.9185 30.4748C21.9185 30.5748 21.8205 30.6498 21.7471 30.6498Z" fill="#7B61FF"/>
<path d="M22.1142 31.9998H13.004C12.5387 31.9998 12.1714 31.6248 12.1714 31.1498C12.1714 30.6748 12.5387 30.2998 13.004 30.2998H22.1142C22.5796 30.2998 22.9469 30.6748 22.9469 31.1498C22.9469 31.6248 22.5796 31.9998 22.1142 31.9998ZM13.004 30.6498C12.7347 30.6498 12.5142 30.8748 12.5142 31.1498C12.5142 31.4248 12.7347 31.6498 13.004 31.6498H22.1142C22.3836 31.6498 22.604 31.4248 22.604 31.1498C22.604 30.8748 22.3836 30.6498 22.1142 30.6498H13.004Z" fill="#7B61FF"/>
</svg>
