<svg width="42" height="42" viewBox="0 0 42 42" fill="none" xmlns="http://www.w3.org/2000/svg">
<circle cx="21" cy="21" r="21" fill="#F4F7FE"/>
<path d="M22.8716 25.5455C22.4931 25.5455 22.1461 25.4243 21.8307 25.2425C21.3576 24.9698 20.7582 24.9698 20.2536 25.2425C19.9381 25.4243 19.5911 25.5152 19.2442 25.5152C18.5187 25.5152 17.8878 25.1516 17.5724 24.5758C17.3201 24.091 16.7838 23.7879 16.2161 23.8182C16.1845 23.8182 16.153 23.8182 16.0899 23.8182C15.5852 23.8182 15.1121 23.6061 14.7651 23.2728C14.4181 22.9091 14.2289 22.4243 14.2604 21.9395C14.3235 21.394 14.0081 20.8788 13.4718 20.6061C12.9987 20.3637 12.6517 19.9697 12.5255 19.4849C12.3994 19 12.494 18.4546 12.7779 18C13.0618 17.5455 13.0618 16.9697 12.7779 16.4849C12.494 16.0303 12.4309 15.4849 12.5571 15C12.6833 14.5152 13.0302 14.1212 13.4718 13.9091C13.9765 13.6667 14.2919 13.1212 14.2604 12.6061C14.2289 12.0909 14.4181 11.6364 14.7651 11.2727C15.1436 10.8788 15.6798 10.697 16.2161 10.7273C16.2476 10.7273 16.3107 10.7273 16.3422 10.7273C16.8469 10.7273 17.3516 10.4243 17.604 9.9697C17.9194 9.39394 18.5818 9 19.2757 9C19.6542 9 20.0012 9.09091 20.3166 9.30303C20.7898 9.57576 21.3891 9.57576 21.8938 9.30303C22.2092 9.12121 22.5562 9.0303 22.9032 9.0303C23.6286 9.0303 24.2595 9.39394 24.5749 9.9697C24.8273 10.4546 25.3951 10.7576 25.9313 10.7273C25.9628 10.7273 25.9944 10.7273 26.0575 10.7273C26.5621 10.7273 27.0353 10.9394 27.4138 11.2727C27.7608 11.6364 27.95 12.1212 27.9185 12.6061C27.8869 13.1515 28.2024 13.6667 28.7071 13.9091C29.1802 14.1515 29.5272 14.5455 29.6533 15.0303C29.7795 15.5152 29.6849 16.0606 29.401 16.5152C29.1171 16.9697 29.1171 17.5455 29.401 18.0303C29.6849 18.4849 29.748 19.0304 29.6218 19.5152C29.4956 20.0001 29.1487 20.394 28.7071 20.6061C28.2024 20.8485 27.8869 21.394 27.9185 21.9395C27.95 22.4243 27.7608 22.9091 27.4138 23.2728C27.0353 23.6667 26.4991 23.8485 25.9628 23.8182C25.9313 23.8182 25.8997 23.8182 25.8366 23.8182C25.3004 23.8182 24.8273 24.1213 24.5749 24.5758C24.1964 25.1819 23.5656 25.5455 22.8716 25.5455ZM21.0421 24.6364C21.3891 24.6364 21.7361 24.7273 22.0515 24.9092C22.3038 25.0607 22.5877 25.1516 22.9032 25.1516C23.4394 25.1516 23.9441 24.8486 24.1964 24.394C24.5434 23.7576 25.2373 23.3637 25.9628 23.4243C25.9944 23.4243 26.0259 23.4243 26.0575 23.4243C26.436 23.4243 26.8145 23.2728 27.0984 23.0001C27.3822 22.7273 27.5084 22.3637 27.4769 21.9698C27.4138 21.2728 27.8239 20.6061 28.4863 20.2728C28.8332 20.091 29.0856 19.7879 29.1802 19.4243C29.3064 19.0303 29.2433 18.6061 29.0225 18.2425C28.644 17.6364 28.644 16.9091 29.0225 16.3031C29.2748 15.9394 29.3379 15.5152 29.2433 15.1515C29.1487 14.7576 28.8648 14.4546 28.4863 14.2727C27.8239 13.9394 27.4138 13.2727 27.4769 12.5758C27.5084 12.2121 27.3507 11.8182 27.0984 11.5455C26.8145 11.2424 26.4044 11.0909 25.9628 11.1212C25.9313 11.1212 25.8682 11.1212 25.8366 11.1212C25.1742 11.1212 24.5119 10.7273 24.228 10.1515C23.9756 9.69697 23.4709 9.42423 22.9032 9.42423C22.6193 9.42423 22.3354 9.48484 22.083 9.63636C21.4837 10 20.6952 10 20.0958 9.63636C19.8435 9.48484 19.5596 9.39394 19.2757 9.39394C18.7395 9.39394 18.2033 9.69697 17.9509 10.1515C17.6039 10.7879 16.91 11.1818 16.1845 11.1212C16.153 11.1212 16.1214 11.1212 16.1214 11.1212C15.7429 11.1212 15.3329 11.2727 15.0805 11.5455C14.7966 11.8182 14.6705 12.1818 14.702 12.5758C14.7651 13.2727 14.355 13.9394 13.6926 14.2727C13.3456 14.4546 13.0933 14.7576 12.9987 15.1212C12.8725 15.5152 12.9356 15.9394 13.1564 16.3031C13.5349 16.9091 13.5349 17.6364 13.1564 18.2425C12.9041 18.6061 12.841 19 12.9356 19.394C13.0302 19.7879 13.3141 20.091 13.6926 20.2728C14.355 20.6061 14.7651 21.2728 14.702 21.9698C14.6705 22.3334 14.8282 22.7273 15.1121 23.0001C15.3959 23.3031 15.806 23.4546 16.2476 23.4243C16.2791 23.4243 16.3422 23.4243 16.3738 23.4243C17.0362 23.4243 17.6986 23.8182 18.014 24.394C18.2663 24.8486 18.771 25.1213 19.3388 25.1213C19.6227 25.1213 19.9066 25.0607 20.1589 24.9092C20.3482 24.7273 20.6952 24.6364 21.0421 24.6364Z" fill="#7B61FF"/>
<path d="M21.0419 23.1208C17.6983 23.1208 14.9541 20.4845 14.9541 17.2723C14.9541 14.0602 17.6983 11.4238 21.0419 11.4238C24.3854 11.4238 27.1297 14.0602 27.1297 17.2723C27.1297 20.4845 24.3854 23.1208 21.0419 23.1208ZM21.0419 11.8178C17.9191 11.8178 15.3642 14.2723 15.3642 17.2723C15.3642 20.2723 17.9191 22.7269 21.0419 22.7269C24.1646 22.7269 26.7196 20.2723 26.7196 17.2723C26.7196 14.2723 24.1646 11.8178 21.0419 11.8178Z" fill="#7B61FF"/>
<path d="M23.0922 20.6971H22.8714C22.8398 20.6971 22.8083 20.6971 22.7768 20.6668L21.0419 19.6971L19.307 20.6062C19.1809 20.6971 18.9285 20.6971 18.8023 20.5759C18.7708 20.5456 18.6131 20.3941 18.7077 20.182L19.0232 18.2123L17.6353 16.8789C17.5406 16.8486 17.4775 16.7577 17.4775 16.5456C17.4775 16.4244 17.5722 16.3335 17.6668 16.2729C17.6983 16.2729 17.6983 16.2425 17.6983 16.2425C17.7299 16.2122 17.7614 16.182 17.8245 16.182L19.7802 15.8789L20.6949 14.091C20.6949 14.0607 20.7265 14.0607 20.7265 14.0304C20.7896 13.9698 20.8842 13.8789 21.0419 13.8789C21.1681 13.8789 21.3573 13.9698 21.4204 14.1213L22.3036 15.8789L24.2593 16.182C24.417 16.182 24.6062 16.3335 24.6062 16.5456C24.6062 16.6062 24.6062 16.788 24.4801 16.9092L23.0606 18.3032L23.3761 20.3032C23.3761 20.4244 23.3761 20.5759 23.2814 20.6971C23.2184 20.6668 23.1553 20.6971 23.0922 20.6971ZM22.9345 20.3032C22.966 20.3032 22.966 20.3032 22.9345 20.3032L22.619 18.2123C22.619 18.1516 22.619 18.0911 22.6821 18.0304L24.1962 16.5759C24.1962 16.5759 24.1962 16.5456 24.1962 16.5153L22.1144 16.2123C22.0513 16.2123 21.9882 16.1516 21.9566 16.091L21.0104 14.2425L20.0641 16.091C20.0325 16.1516 19.9694 16.182 19.9063 16.2123L17.8876 16.5153L17.8561 16.5456L19.3386 17.9698C19.3701 18.0001 19.4017 18.0911 19.4017 18.1517L19.0547 20.2426L20.8842 19.2729C20.9473 19.2426 21.0104 19.2426 21.0734 19.2729L22.9345 20.3032Z" fill="#7B61FF"/>
<path d="M16.7837 32.9997C16.6891 32.9997 16.626 32.939 16.5944 32.8784L15.3643 30.0299L12.2731 30.8178C12.21 30.8481 12.1153 30.8178 12.0523 30.7572C11.9892 30.6966 11.9892 30.6057 12.0207 30.5451L12.0523 30.4845L15.6482 23.5148C15.6797 23.4541 15.7743 23.3936 15.869 23.3936C15.9636 23.3936 16.0582 23.3936 16.1213 23.3936C16.1528 23.3936 16.2159 23.3936 16.2475 23.3936C16.9099 23.3936 17.5723 23.7875 17.8877 24.3633C18.14 24.8178 18.6447 25.0905 19.2125 25.0905C19.4964 25.0905 19.7803 25.0299 20.0326 24.8784C20.285 24.7269 20.6004 24.636 20.9158 24.6057C21.0105 24.6057 21.0735 24.636 21.1051 24.6966C21.1366 24.7572 21.1366 24.8178 21.1051 24.9087L16.973 32.8784C16.9414 32.9694 16.8783 32.9997 16.7837 32.9997ZM15.522 29.6057C15.6166 29.6057 15.6797 29.6663 15.7112 29.7269L16.8152 32.333L20.5373 25.1208C20.4427 25.1511 20.3165 25.2117 20.2219 25.2724C19.9064 25.4542 19.5595 25.5451 19.2125 25.5451C18.487 25.5451 17.8562 25.1814 17.5407 24.6057C17.2884 24.1208 16.7522 23.8178 16.1844 23.8481C16.1213 23.8481 16.0582 23.8481 15.9951 23.8481L12.62 30.3633L15.4589 29.636C15.4904 29.6057 15.4904 29.6057 15.522 29.6057Z" fill="#7B61FF"/>
<path d="M25.2684 32.9999C25.2053 32.9999 25.1107 32.9696 25.0791 32.8787L20.947 24.909C20.9155 24.8484 20.9155 24.7575 20.947 24.6969C20.9785 24.6362 21.0732 24.6059 21.1363 24.6059C21.4517 24.6363 21.7356 24.7271 22.0195 24.8787C22.2718 25.0302 22.5557 25.1211 22.8396 25.1211C23.3758 25.1211 23.8805 24.8181 24.1328 24.3635C24.4798 23.7272 25.1738 23.3332 25.8992 23.3938C25.9623 23.3938 26.057 23.3938 26.1516 23.3938C26.2462 23.3938 26.3093 23.4241 26.3724 23.515L29.9683 30.4848C29.9998 30.5151 29.9998 30.5757 29.9998 30.606C29.9998 30.7272 29.9052 30.8181 29.779 30.8181C29.7475 30.8181 29.7475 30.8181 29.7159 30.8181L26.6247 30.0302L25.4261 32.8787C25.4261 32.9393 25.363 32.9999 25.2684 32.9999ZM21.5148 25.1211L25.2368 32.3333L26.3408 29.7272C26.3724 29.6363 26.4986 29.5757 26.5932 29.606L29.4321 30.3332L26.057 23.8181C25.9939 23.8181 25.9308 23.8181 25.8677 23.8181C25.8362 23.8181 25.8046 23.8181 25.7415 23.8181C25.2053 23.8181 24.7322 24.1211 24.4798 24.5756C24.1644 25.1817 23.5335 25.5453 22.8396 25.5453C22.4611 25.5453 22.1141 25.4241 21.7987 25.2423C21.7356 25.1817 21.6094 25.1514 21.5148 25.1211Z" fill="#7B61FF"/>
</svg>
