<svg width="42" height="42" viewBox="0 0 42 42" fill="none" xmlns="http://www.w3.org/2000/svg">
<circle cx="21" cy="21" r="21" fill="#F4F7FE"/>
<path d="M23.608 15.7321C23.5754 15.6 23.4775 15.534 23.3471 15.567C22.5645 15.7321 21.7494 15.8312 21.032 15.8312C20.3147 15.8312 19.4995 15.7321 18.7169 15.567C18.5865 15.534 18.4887 15.6 18.4561 15.7321C18.4235 15.8643 18.4887 15.9633 18.6191 15.9964C19.4343 16.1945 20.2494 16.2606 21.032 16.2606C21.8146 16.2606 22.6298 16.1615 23.4449 15.9964C23.5754 15.9633 23.6406 15.8312 23.608 15.7321Z" fill="#7B61FF"/>
<path d="M27.9448 24.8147L24.1298 22.7339C23.7711 22.5358 23.5429 22.1395 23.5429 21.7431V20.4881C23.9342 19.8936 24.1624 19.2991 24.2602 18.9028C24.6515 18.9028 24.9776 18.5395 24.9776 18.0771V17.7468C24.9776 17.4165 24.7819 17.1193 24.5211 16.9872C24.5211 16.855 24.4885 16.6899 24.4885 16.5248C24.945 16.3927 25.2058 16.2606 25.2384 16.2606L25.4015 16.1945L25.0428 15.0055L24.6189 15.1376C24.1624 14.0147 23.3798 13.1229 22.4016 12.6936C22.369 12.2972 22.043 12 21.6843 12H20.3474C19.9887 12 19.6952 12.2972 19.63 12.6936C18.6518 13.1229 17.8693 14.0147 17.4128 15.1376L16.9889 15.0055L16.6302 16.1945L16.7932 16.2606C16.8258 16.2606 17.0867 16.3927 17.5432 16.5248C17.5106 16.6899 17.5106 16.822 17.5106 16.9541C17.2497 17.0862 17.0541 17.3835 17.0541 17.7138V18.044C17.0541 18.5064 17.3802 18.8697 17.7714 18.8697C17.8367 19.2661 18.0975 19.8936 18.4888 20.455V21.7431C18.4888 22.1725 18.2605 22.5358 17.9019 22.7339L14.0868 24.8147C12.8152 25.5083 12 26.8624 12 28.3156V30H12.4239V28.3156C12.4239 26.9945 13.1412 25.8055 14.2825 25.178L14.8042 24.8807V30H15.2281V24.6826L17.0541 23.6917V27.1596C17.0541 27.622 17.4128 27.9853 17.8693 27.9853H20.9995H24.1298C24.5863 27.9853 24.945 27.622 24.945 27.1596V23.6917L26.771 24.6826V30H27.1949V24.9138L27.7166 25.211C28.8578 25.8385 29.5752 27.0275 29.5752 28.3486V30H29.9991V28.3156C30.0317 26.8624 29.2165 25.5083 27.9448 24.8147ZM17.2823 15.5009L17.6736 15.633L17.7388 15.4349C18.0975 14.378 18.7823 13.5853 19.5974 13.1229V14.0807C19.5974 14.2128 19.6952 14.2789 19.7931 14.2789C19.9235 14.2789 19.9887 14.1798 19.9887 14.0807V12.7266C19.9887 12.5284 20.1191 12.3633 20.2822 12.3633H21.6843C21.8473 12.3633 21.9777 12.5284 21.9777 12.7266V14.0807C21.9777 14.2128 22.0756 14.2789 22.1734 14.2789C22.3038 14.2789 22.369 14.1798 22.369 14.0807V13.1229C23.2168 13.5853 23.8689 14.378 24.2276 15.4349L24.2928 15.633L24.6841 15.5009L24.8145 15.8972C24.3254 16.0954 22.7929 16.6239 20.9343 16.6239C19.1083 16.6239 17.5758 16.0954 17.0541 15.8972L17.2823 15.5009ZM17.804 18.4404C17.641 18.4404 17.478 18.2752 17.478 18.044V17.7138C17.478 17.5156 17.6084 17.3505 17.7714 17.3174L17.9671 17.2844V17.1193C17.9671 16.9541 17.9671 16.822 17.9997 16.6569C18.7496 16.8881 19.8257 17.0862 21.0321 17.0862C22.2386 17.0862 23.3146 16.855 24.0646 16.6569C24.0972 16.822 24.0972 16.9872 24.0972 17.1523V17.3505L24.2602 17.3835C24.4233 17.4165 24.5211 17.5817 24.5211 17.7798V18.1101C24.5211 18.3413 24.3907 18.5064 24.195 18.5064H23.8037V18.7046C23.8037 19.3321 22.7603 21.644 20.9669 21.644C19.1735 21.644 18.1301 19.3321 18.1301 18.7046V18.4404H17.804ZM18.9453 21.7431V21.0165C19.467 21.611 20.1844 22.0404 21.0321 22.0404C21.8799 22.0404 22.5973 21.578 23.119 21.0165V21.7431C23.119 22.1725 23.282 22.5688 23.5755 22.8661C23.0212 23.4275 22.0756 24.2202 20.9995 24.2202C19.9235 24.2202 18.9779 23.4275 18.4236 22.8661C18.7496 22.5688 18.9453 22.1725 18.9453 21.7431ZM24.5537 27.1596C24.5537 27.3908 24.3581 27.556 24.1624 27.556H21.0321H17.9019C17.6736 27.556 17.5106 27.3578 17.5106 27.1596V23.4605L18.1301 23.1303C18.8149 23.8569 19.8583 24.6826 21.0321 24.6826C22.2386 24.6826 23.2494 23.8569 23.9342 23.1303L24.5537 23.4605V27.1596Z" fill="#7B61FF"/>
</svg>
