<svg width="42" height="42" viewBox="0 0 42 42" fill="none" xmlns="http://www.w3.org/2000/svg">
<circle cx="21" cy="21" r="21" fill="#F4F7FE"/>
<path d="M24.2326 9.7627V9H23.8513V9.7627H18.043V9H17.6617V9.7627H16.8696V11.9628H17.603V13.5762L19.3631 15.3363V16.5097H20.2431V17.6537C18.9231 18.0351 18.0723 19.3551 18.307 20.7338C18.4244 21.4672 18.8644 22.0832 19.4511 22.4939L17.779 24.694L18.0723 24.9287L19.7737 22.6993C19.9791 22.8166 20.2138 22.9046 20.4778 22.9339C20.6538 22.9633 20.8005 22.9926 20.9765 22.9926C21.2698 22.9926 21.5632 22.9339 21.8565 22.8459C21.9739 22.7873 22.0912 22.7579 22.1792 22.6699L23.9099 24.958L24.2033 24.7234L22.4725 22.4353C22.7365 22.2006 22.9126 21.9072 23.0592 21.5259C23.1472 21.2912 23.0886 21.0565 22.8832 20.9392C22.6779 20.7925 22.4432 20.8218 22.2672 20.9979C22.0618 21.1739 21.8858 21.2912 21.6805 21.4085L21.1525 20.7045C21.1231 20.6458 21.0645 20.6165 21.0058 20.6165C20.9471 20.6165 20.8885 20.6458 20.8591 20.7045L20.3604 21.3499C20.2724 21.2912 20.1551 21.2032 20.0964 21.1152C19.8618 20.8512 19.7444 20.4992 19.7737 20.1472C19.8324 19.5018 20.4191 19.0031 21.0938 19.0031H21.7685V16.4803H22.6486V15.3069L24.4086 13.5469V11.9335H24.966H25.1713V9.73337H24.2326V9.7627ZM22.4725 21.2619C22.5312 21.2032 22.6192 21.2325 22.6192 21.2619C22.6485 21.2912 22.6779 21.3205 22.6486 21.4085C22.5312 21.7019 22.2379 22.2592 21.6512 22.4939C21.2992 22.6406 20.9178 22.6699 20.5071 22.5819C20.3311 22.5526 20.1551 22.4939 19.9791 22.4059L20.4191 21.8192C20.5951 21.8779 20.7711 21.9072 20.9471 21.9072C21.5045 21.9072 22.0032 21.7019 22.4725 21.2619ZM20.9471 21.1152L21.2405 21.4965C21.1525 21.5259 21.0351 21.5259 20.9471 21.5259C20.8591 21.5259 20.7418 21.5259 20.6538 21.4965L20.9471 21.1152ZM21.2991 18.6511H21.0058C20.1258 18.6511 19.3924 19.2964 19.3044 20.1178C19.2751 20.5872 19.4217 21.0272 19.7151 21.3792C19.8031 21.4966 19.9204 21.5846 20.0378 21.6432L19.6271 22.2006C19.1284 21.8486 18.747 21.2912 18.6297 20.6752C18.4244 19.4431 19.2164 18.2404 20.4191 17.9764L20.5658 17.9471V16.4803H21.2698V18.6511H21.2991ZM19.0697 11.9628L17.9843 13.0482V11.9628H19.0697ZM19.6271 15.0723L19.1284 14.5736L21.7392 11.9628H23.3232L20.2138 15.0723H19.6271ZM18.8351 14.2802L18.043 13.4882L19.5977 11.9335H21.1818L18.8351 14.2802ZM19.7151 16.1283V15.4536H22.1499V16.1576H19.7151V16.1283ZM23.9099 13.4295L22.2672 15.0723H20.7125L23.8219 11.9628H23.9099V13.4295ZM24.6433 11.5814H17.251V10.144H24.6433V11.5814Z" fill="#7B61FF"/>
<path d="M18.1516 33.602H17.4186V25.5847L15 26.483V25.7986L18.0294 24.6742H18.1516V33.602Z" fill="#7B61FF"/>
<path d="M27.0504 29.8928C27.0504 31.1475 26.8204 32.1008 26.3603 32.7526C25.9001 33.4003 25.2222 33.7242 24.3264 33.7242C23.4469 33.7242 22.773 33.4065 22.3048 32.7709C21.8365 32.1313 21.5963 31.2025 21.5841 29.9844V28.3895C21.5841 27.1389 21.8162 26.1917 22.2803 25.548C22.7445 24.9044 23.4225 24.5825 24.3142 24.5825C25.1937 24.5825 25.8655 24.8942 26.3297 25.5175C26.7939 26.1367 27.0341 27.0513 27.0504 28.2612V29.8928ZM26.3175 28.2979C26.3175 27.2794 26.1506 26.5094 25.8167 25.988C25.4869 25.4665 24.986 25.2058 24.3142 25.2058C23.6546 25.2058 23.1578 25.4604 22.8239 25.9697C22.49 26.4789 22.319 27.2305 22.3109 28.2245V29.9722C22.3109 30.9866 22.4819 31.7627 22.8239 32.3004C23.17 32.8382 23.6708 33.107 24.3264 33.107C24.9779 33.107 25.4706 32.8443 25.8045 32.3187C26.1424 31.7932 26.3134 31.0233 26.3175 30.0089V28.2979Z" fill="#7B61FF"/>
</svg>
