<svg width="16" height="15" viewBox="0 0 16 15" fill="none" xmlns="http://www.w3.org/2000/svg">
<rect width="16" height="14.9333" fill="#C4C4C4" fill-opacity="0.5"/>
<path d="M11.4462 4.35525C11.3768 4.31592 11.2992 4.28891 11.2179 4.27577C11.1365 4.26263 11.053 4.26362 10.9721 4.27868C10.8912 4.29373 10.8145 4.32256 10.7464 4.36351C10.6782 4.40447 10.62 4.45675 10.575 4.51737L7.04539 9.2692L5.32406 7.8791C5.26333 7.83005 5.19213 7.79193 5.11453 7.76692C5.03694 7.74191 4.95446 7.73049 4.87181 7.73331C4.70489 7.73902 4.5474 7.80241 4.434 7.90954C4.32059 8.01666 4.26055 8.15875 4.26708 8.30454C4.27362 8.45033 4.3462 8.58788 4.46885 8.68693L6.72897 10.512C6.72897 10.512 6.79385 10.5608 6.82388 10.5779C6.89327 10.6172 6.97086 10.6443 7.05222 10.6574C7.13358 10.6706 7.2171 10.6696 7.29803 10.6545C7.37895 10.6395 7.45569 10.6106 7.52385 10.5697C7.592 10.5287 7.65025 10.4764 7.69525 10.4158L11.6318 5.11614C11.6768 5.05554 11.7077 4.98778 11.7228 4.91674C11.7378 4.8457 11.7367 4.77277 11.7194 4.70211C11.7022 4.63145 11.6692 4.56445 11.6223 4.50493C11.5754 4.44542 11.5156 4.39455 11.4462 4.35525Z" fill="white"/>
</svg>
