<svg width="46" height="46" viewBox="0 0 46 46" fill="none" xmlns="http://www.w3.org/2000/svg">
<path fill-rule="evenodd" clip-rule="evenodd" d="M11.6868 11.6863C20.3106 3.06243 26.103 3.47516 34.3142 11.6863C42.5253 19.8974 42.938 25.6898 34.3142 34.3137C25.6903 42.9376 19.8979 42.5248 11.6868 34.3137C3.47562 26.1026 3.06289 20.3102 11.6868 11.6863Z" fill="#959FBA"/>
<path fill-rule="evenodd" clip-rule="evenodd" d="M23 16C22.4477 16 22 16.4477 22 17V22H17C16.4477 22 16 22.4477 16 23C16 23.5523 16.4477 24 17 24H22V29C22 29.5523 22.4477 30 23 30C23.5523 30 24 29.5523 24 29V24H29C29.5523 24 30 23.5523 30 23C30 22.4477 29.5523 22 29 22H24V17C24 16.4477 23.5523 16 23 16Z" fill="white"/>
</svg>
