<svg width="20" height="20" viewBox="0 0 20 20" fill="none" xmlns="http://www.w3.org/2000/svg">
<rect width="20" height="20" rx="10" fill="#D6DBFE"/>
<path d="M0 10C0 4.47715 4.47715 0 10 0C15.5228 0 20 4.47715 20 10C20 15.5228 15.5228 20 10 20C4.47715 20 0 15.5228 0 10Z" fill="#F1F3F5"/>
<path d="M9.01562 8.85363H10.9688V15H9.01562V8.85363ZM10 7.42876C9.64583 7.42876 9.34896 7.31541 9.10938 7.08873C8.86979 6.85125 8.75 6.5598 8.75 6.21438C8.75 5.86895 8.86979 5.5829 9.10938 5.35622C9.34896 5.11874 9.64583 5 10 5C10.3542 5 10.651 5.11334 10.8906 5.34003C11.1302 5.55592 11.25 5.83117 11.25 6.1658C11.25 6.52202 11.1302 6.82427 10.8906 7.07254C10.6615 7.31002 10.3646 7.42876 10 7.42876Z" fill="#7B61FF"/>
</svg>
