<svg width="165" height="36" viewBox="0 0 165 36" fill="none" xmlns="http://www.w3.org/2000/svg">
<path d="M12.0261 24.3542L8.73007 27.8524V35.6015H0V4.60516H8.73007V17.4908L20.8007 4.60516H30.5107L17.7719 18.3321L31.1788 35.6015H20.9344L12.0261 24.3542Z" fill="#414553"/>
<path d="M32.657 11.6015H41.1199V35.6015H32.657V11.6015ZM36.8884 8.94465C35.3443 8.94465 34.0972 8.5166 33.147 7.66052C32.1968 6.80443 31.7217 5.7417 31.7217 4.47232C31.7217 3.20295 32.1968 2.14022 33.147 1.28413C34.0972 0.428044 35.3443 0 36.8884 0C38.4325 0 39.6797 0.413284 40.6299 1.23985C41.5801 2.0369 42.0552 3.07011 42.0552 4.33948C42.0552 5.6679 41.5801 6.77491 40.6299 7.66052C39.6797 8.5166 38.4325 8.94465 36.8884 8.94465Z" fill="#414553"/>
<path d="M63.278 34.6273C62.5654 35.0701 61.6894 35.4096 60.6501 35.6458C59.6405 35.8819 58.5567 36 57.3986 36C54.251 36 51.831 35.2325 50.1384 33.6974C48.4458 32.1624 47.5995 29.8745 47.5995 26.8339V18.7749H44.0808V12.4871H47.5995V6.24354H56.0624V12.4871H61.5855V18.7749H56.0624V26.7454C56.0624 27.6015 56.2851 28.2804 56.7305 28.7823C57.2056 29.2546 57.8292 29.4908 58.6012 29.4908C59.5811 29.4908 60.4423 29.2399 61.1846 28.738L63.278 34.6273Z" fill="#414553"/>
<path d="M82.4424 35.8226C79.3839 35.8226 76.6223 35.1436 74.1577 33.7857C71.7228 32.4278 69.7927 30.5532 68.3674 28.1621C66.9717 25.771 66.2739 23.0846 66.2739 20.1031C66.2739 17.1215 66.9717 14.4352 68.3674 12.044C69.7927 9.65287 71.7228 7.77833 74.1577 6.42039C76.6223 5.06246 79.3839 4.38349 82.4424 4.38349C84.6991 4.38349 86.7777 4.7525 88.6781 5.49051C90.5786 6.19899 92.1969 7.26172 93.5331 8.6787L92.1078 10.14C89.6135 7.68977 86.4214 6.46467 82.5315 6.46467C79.9184 6.46467 77.5428 7.05508 75.4049 8.23589C73.2669 9.4167 71.5892 11.0551 70.3717 13.151C69.1543 15.2174 68.5455 17.5348 68.5455 20.1031C68.5455 22.6713 69.1543 25.0034 70.3717 27.0994C71.5892 29.1658 73.2669 30.7894 75.4049 31.9702C77.5428 33.151 79.9184 33.7414 82.5315 33.7414C86.3917 33.7414 89.5838 32.5016 92.1078 30.0219L93.5331 31.4831C92.1969 32.9001 90.5637 33.9776 88.6336 34.7156C86.7332 35.4536 84.6694 35.8226 82.4424 35.8226Z" fill="#414553"/>
<path d="M100.429 2.74512H102.656V35.6012H100.429V2.74512Z" fill="#414553"/>
<path d="M132.398 12.4868V35.6012H130.26V30.6418C129.488 32.2654 128.345 33.5348 126.83 34.4499C125.316 35.3355 123.534 35.7783 121.486 35.7783C118.457 35.7783 116.081 34.937 114.359 33.2543C112.637 31.5717 111.776 29.151 111.776 25.9924V12.4868H114.003V25.8152C114.003 28.413 114.671 30.3909 116.007 31.7488C117.343 33.1067 119.229 33.7857 121.664 33.7857C124.277 33.7857 126.34 32.9739 127.855 31.3503C129.399 29.7267 130.171 27.5422 130.171 24.7968V12.4868H132.398Z" fill="#414553"/>
<path d="M153.508 12.3097C155.676 12.3097 157.636 12.8115 159.388 13.8152C161.14 14.7894 162.505 16.1769 163.485 17.9776C164.495 19.7488 165 21.7709 165 24.044C165 26.3171 164.495 28.3392 163.485 30.1104C162.505 31.8816 161.14 33.2691 159.388 34.2728C157.636 35.2765 155.676 35.7783 153.508 35.7783C151.43 35.7783 149.544 35.2912 147.851 34.3171C146.189 33.3134 144.897 31.9259 143.976 30.1547V35.6012H141.838V2.74512H144.065V17.7562C144.986 16.044 146.278 14.7156 147.941 13.7709C149.603 12.7968 151.459 12.3097 153.508 12.3097ZM153.375 33.7857C155.156 33.7857 156.76 33.3724 158.185 32.5459C159.61 31.7193 160.724 30.568 161.526 29.092C162.357 27.616 162.773 25.9333 162.773 24.044C162.773 22.1547 162.357 20.4721 161.526 18.996C160.724 17.52 159.61 16.3687 158.185 15.5422C156.76 14.7156 155.156 14.3023 153.375 14.3023C151.593 14.3023 149.989 14.7156 148.564 15.5422C147.168 16.3687 146.055 17.52 145.223 18.996C144.422 20.4721 144.021 22.1547 144.021 24.044C144.021 25.9333 144.422 27.616 145.223 29.092C146.055 30.568 147.168 31.7193 148.564 32.5459C149.989 33.3724 151.593 33.7857 153.375 33.7857Z" fill="#414553"/>
</svg>
