<svg width="165" height="42" viewBox="0 0 165 42" fill="none" xmlns="http://www.w3.org/2000/svg">
<g clip-path="url(#clip0)">
<path d="M158.832 0.421405C158.215 0.702341 157.598 1.26421 157.29 1.82609C156.519 2.94983 156.519 4.35452 157.29 5.47826C157.598 6.04013 158.215 6.46154 158.832 6.88294C160.065 7.58528 161.607 7.58528 162.995 6.88294C163.612 6.60201 164.229 6.04013 164.537 5.47826C164.846 4.91639 165.154 4.35452 165.154 3.65217C165.154 2.94983 165 2.38796 164.537 1.82609C164.229 1.26421 163.612 0.842809 162.995 0.421405C161.607 -0.140468 160.065 -0.140468 158.832 0.421405ZM162.533 1.12375C162.995 1.40468 163.458 1.68562 163.766 2.24749C164.383 3.0903 164.383 4.35452 163.766 5.19732C163.458 5.61873 162.995 6.04013 162.533 6.32107C161.453 6.88294 160.22 6.88294 159.294 6.32107C158.832 6.04013 158.369 5.7592 158.061 5.19732C157.444 4.35452 157.444 3.0903 158.061 2.24749C158.369 1.82609 158.832 1.40468 159.294 1.12375C160.22 0.561873 161.453 0.561873 162.533 1.12375ZM159.911 5.61873V4.07358H160.065C160.22 4.07358 160.528 4.07358 160.682 4.21405C160.991 4.49498 161.145 4.77592 161.299 5.05686L161.607 5.61873H162.687L162.224 4.77592C162.07 4.49498 161.916 4.35452 161.916 4.35452C161.916 4.21405 161.762 4.21405 161.762 4.07358C161.607 4.07358 161.607 3.93311 161.453 3.93311C161.762 3.93311 162.07 3.79264 162.378 3.51171C162.533 3.37124 162.687 3.0903 162.687 2.80936C162.687 2.6689 162.687 2.38796 162.533 2.24749C162.378 2.10702 162.224 1.96656 162.07 1.82609C161.916 1.68562 161.607 1.68562 161.453 1.68562C161.299 1.68562 160.836 1.68562 160.065 1.68562H159.14V5.61873H159.911ZM159.911 2.38796H160.22C160.528 2.38796 160.836 2.38796 161.145 2.38796C161.299 2.38796 161.299 2.52843 161.453 2.52843C161.453 2.6689 161.607 2.6689 161.607 2.80936C161.607 2.94983 161.607 3.0903 161.453 3.0903C161.453 3.23077 161.299 3.23077 161.145 3.23077C160.836 3.23077 160.528 3.37124 160.22 3.23077H159.911V2.38796ZM113.187 40.5953L109.486 25.5652C108.715 26.5485 107.944 27.6722 107.327 28.796C106.71 29.7793 106.402 30.7625 106.093 31.8863C105.785 32.8696 105.631 33.9933 105.631 34.9766C105.631 35.8194 105.785 36.8027 105.785 37.6455C105.939 38.7692 106.093 39.3311 106.093 39.612V41.1572C106.093 41.4381 105.939 41.7191 105.631 41.7191C105.322 41.8595 105.168 41.8595 104.86 41.8595C104.397 41.8595 104.089 41.8595 103.626 41.7191C103.472 41.7191 103.164 41.7191 102.701 41.7191C102.238 41.7191 101.93 41.7191 101.621 41.7191C101.313 41.7191 101.005 41.7191 100.85 41.7191C100.542 41.7191 100.079 41.5786 99.9252 41.2977C99.6168 40.7358 99.6168 40.1739 99.6168 39.612C99.6168 38.3478 99.771 37.0836 100.234 35.8194C100.696 34.6957 101.159 33.7124 101.93 32.7291C102.547 31.8863 103.626 30.6221 104.86 29.0769C105.785 27.9532 106.71 26.8294 107.481 25.5652C107.944 24.7224 108.252 23.8796 108.252 22.8963C108.252 22.0535 106.248 22.194 105.785 22.194V21.0702H115.346V22.3344H113.495L117.659 39.7525L121.822 22.3344H120.28V21.0702H129.224V22.3344H127.065L131.537 40.5953H133.85V41.8595H124.907V40.5953H126.449L122.748 25.0033L119.509 40.5953H121.206V41.8595H111.491V40.5953H113.187ZM14.0327 39.4716V4.77592H10.7944C10.0234 4.77592 9.25234 4.91639 8.63551 5.19732C7.86449 5.7592 7.40187 6.60201 7.09346 7.44482C6.47663 9.2709 5.85981 11.097 5.5514 12.9231C5.3972 13.6254 5.24299 14.4682 4.93458 15.1706C4.78037 15.592 4.31776 15.7324 4.00935 15.7324C3.54673 15.7324 3.08411 15.4515 2.92991 15.0301C2.7757 14.4682 2.6215 13.7659 2.6215 13.0635C2.6215 11.3779 2.31308 9.69231 1.69626 8.14716C1.38785 7.86622 1.07944 7.16388 0.616822 6.04013C0.308411 5.33779 0.154206 4.49498 0 3.79264C0 3.23077 0.154206 2.6689 0.616822 2.24749C0.925234 1.82609 1.54206 1.54515 2.15888 1.68562C2.6215 1.68562 3.08411 1.82609 3.54673 1.96656C4.31776 2.10702 4.93458 2.24749 5.70561 2.38796C6.78505 2.52843 7.71028 2.52843 8.78972 2.52843C9.09813 2.52843 9.40654 2.52843 9.71495 2.52843C10.0234 2.52843 10.3318 2.52843 10.486 2.52843H25.1355C25.2897 2.52843 25.5981 2.52843 26.0607 2.52843C26.5234 2.52843 26.6776 2.52843 26.986 2.52843C28.0654 2.52843 28.9907 2.52843 30.0701 2.38796C30.8411 2.24749 31.4579 2.10702 32.229 1.96656C32.6916 1.82609 33.1542 1.68562 33.6168 1.68562C34.2336 1.68562 34.8505 1.82609 35.1589 2.38796C35.4673 2.80936 35.7757 3.37124 35.7757 3.93311C35.6215 4.63545 35.4673 5.47826 35.1589 6.1806C34.6963 7.16388 34.3878 8.00669 34.2336 8.56856C33.771 10.1137 33.3084 11.7993 33.3084 13.485C33.3084 15.1706 32.8458 16.1538 31.9206 16.1538C31.6121 16.1538 31.1495 16.0134 30.9953 15.7324C30.8411 15.4515 30.6869 15.0301 30.5327 14.6087C30.3785 14.1873 30.2243 13.204 29.7617 11.3779C29.4533 9.83278 28.9907 8.42809 28.2196 7.16388C27.9112 6.46154 27.1402 5.7592 26.3692 5.47826C25.4439 5.19732 24.5187 5.05686 23.5935 5.05686H21.4346V39.7525H25.5981V42.1405H10.0234V39.7525L14.0327 39.4716ZM88.9766 35.1171V36.3813C91.9065 36.3813 90.2103 38.0669 88.8224 39.4716C87.5888 40.4548 86.0467 40.8763 84.5047 40.8763C84.042 40.8763 83.7336 40.8763 83.271 40.7358C83.4252 40.1739 83.5794 39.7525 83.5794 39.1906C83.5794 38.3478 83.5794 37.6455 83.4252 36.8027C83.271 36.2408 82.9626 35.398 82.6542 34.2742C82.3458 33.1505 82.0374 32.0268 81.8832 30.903H97.4579V29.6388C97.1495 27.1104 96.5327 23.8796 94.0654 22.3344C92.986 21.6321 91.9065 21.2107 90.6729 20.9298C87.743 20.2274 84.6589 20.5084 81.8832 21.4916C80.1869 22.0535 78.6449 23.1773 77.5654 24.5819C76.3318 26.2676 75.715 28.2341 75.8692 30.2007C75.8692 30.903 76.0234 31.6054 76.1776 32.3077C76.3318 33.01 76.7944 33.7124 77.257 34.2742C78.028 35.2575 78.7991 36.1003 79.5701 37.0836C80.1869 37.6455 80.6495 38.3478 81.1121 39.0502C81.4206 39.612 81.5748 40.3144 81.5748 41.0167C81.5748 41.1572 81.5748 41.4381 81.5748 41.8595C82.3458 42.1405 83.271 42.2809 84.1963 42.2809C85.2757 42.4214 86.2009 42.4214 87.1262 42.4214C88.514 42.4214 89.7477 42.1405 90.9813 41.7191C92.2149 41.1572 93.4486 40.5953 94.3738 39.612C95.9159 38.3478 96.0701 36.8027 98.0748 36.6622V35.1171H88.9766ZM81.5748 28.2341C81.5748 27.2508 81.729 26.1271 82.0374 25.1438C82.3458 24.1605 82.8084 23.3177 83.5794 22.7559C84.3505 22.0535 85.2757 21.7726 86.3551 21.7726C87.4346 21.6321 88.6682 22.0535 89.4392 22.7559C90.9813 24.7224 91.5981 27.2508 91.1355 29.6388H81.5748C81.5748 29.0769 81.5748 28.6555 81.5748 28.2341ZM72.1682 23.5987C71.3972 22.6154 70.472 21.913 69.2383 21.4916C67.8505 20.9298 66.3084 20.6488 64.7663 20.6488C63.0701 20.6488 61.3738 21.0702 59.8318 21.913C58.4439 22.7559 57.3645 23.8796 56.5935 25.2843C56.5935 26.689 56.4392 28.2341 56.4392 29.7793V38.6288C56.4392 40.8763 54.8972 40.5953 53.6635 40.5953V41.8595H64.3037V40.5953C63.3785 40.4548 61.528 41.0167 61.528 38.6288V34.9766L63.8411 32.3077C63.9953 32.3077 64.3037 32.4482 64.6121 32.5886C65.0748 32.8696 65.5374 33.01 66 33.1505C66.4626 33.291 66.9252 33.291 67.2336 33.291C68.3131 33.291 69.2383 33.01 70.1635 32.5886C72.014 31.7458 72.9392 28.0936 72.9392 26.5485C73.0935 25.5652 72.785 24.5819 72.1682 23.5987ZM66.6168 30.4816C66.3084 30.903 65.6916 31.1839 65.0748 31.3244C64.9206 31.3244 64.7663 31.3244 64.4579 31.1839C64.1495 31.0435 63.9953 30.903 63.8411 30.7625L61.6822 33.1505V27.3913C61.6822 26.408 61.6822 25.5652 61.8364 24.5819C61.8364 23.8796 62.1449 23.3177 62.6075 22.6154C63.0701 22.0535 63.6869 21.7726 64.4579 21.7726C65.3832 21.7726 66.3084 22.194 66.6168 23.0368C67.0794 24.1605 67.2336 25.2843 67.2336 26.408C67.3878 27.9532 67.0794 29.2174 66.6168 30.4816ZM43.0234 35.1171V36.3813C45.9533 36.3813 44.257 38.0669 42.8692 39.4716C41.6355 40.4548 40.0935 40.8763 38.5514 40.8763C38.0888 40.8763 37.7804 40.8763 37.3178 40.7358C37.472 40.1739 37.6262 39.7525 37.6262 39.1906C37.6262 38.3478 37.6262 37.6455 37.472 36.8027C37.3178 36.2408 37.0093 35.398 36.7009 34.2742C36.3925 33.1505 36.0841 32.0268 35.9299 30.903H51.5047V29.6388C51.1963 27.1104 50.5794 23.8796 48.1121 22.3344C47.0327 21.6321 45.9533 21.2107 44.7196 20.9298C41.7897 20.2274 38.7056 20.5084 35.9299 21.4916C34.2336 22.0535 32.6916 23.1773 31.6121 24.5819C30.3785 26.2676 29.7617 28.2341 29.9159 30.2007C29.9159 30.903 30.0701 31.6054 30.2243 32.3077C30.3785 33.01 30.8411 33.7124 31.3037 34.2742C32.0748 35.2575 32.8458 36.1003 33.6168 37.0836C34.2336 37.6455 34.6963 38.3478 35.1589 39.0502C35.4673 39.612 35.6215 40.3144 35.6215 41.0167C35.6215 41.1572 35.6215 41.4381 35.6215 41.8595C36.3925 42.1405 37.3178 42.2809 38.243 42.2809C39.3224 42.4214 40.2477 42.4214 41.1729 42.4214C42.5607 42.4214 43.7944 42.1405 45.028 41.7191C46.2617 41.1572 47.4953 40.5953 48.4206 39.612C49.9626 38.3478 50.1168 36.8027 52.1215 36.6622V35.1171H43.0234ZM35.6215 28.2341C35.6215 27.2508 35.7757 26.1271 36.0841 25.1438C36.3925 24.1605 36.8551 23.3177 37.6262 22.7559C38.3972 22.0535 39.3224 21.7726 40.4019 21.7726C41.4813 21.6321 42.715 22.0535 43.486 22.7559C45.028 24.7224 45.6449 27.2508 45.1822 29.6388H35.6215C35.6215 29.0769 35.6215 28.6555 35.6215 28.2341ZM163.766 23.8796C163.304 23.1773 162.378 22.8963 161.453 22.8963C160.682 23.0368 160.065 23.0368 159.603 23.0368C157.752 23.0368 156.056 22.6154 154.514 21.7726C152.818 21.0702 151.121 19.9465 149.888 18.5418V4.77592H153.589V2.24749H134.159C133.234 2.10702 132.463 1.96656 131.692 1.82609C131.229 1.68562 130.921 1.68562 130.458 1.54515C129.995 1.54515 129.533 1.68562 129.224 1.96656C128.607 2.38796 128.299 3.0903 128.299 3.79264C128.607 5.19732 129.07 6.60201 129.687 7.86622C130.15 9.2709 130.458 10.6756 130.612 12.0803C130.612 13.0635 130.766 14.0468 130.921 14.8896C131.075 15.4515 131.537 15.7324 132.154 15.7324C132.617 15.7324 132.925 15.592 133.079 15.311C133.388 14.7492 133.542 14.0468 133.696 13.485C134.159 11.2375 134.621 9.69231 135.084 8.14716C136.164 4.63545 137.706 4.77592 139.402 4.77592H142.332V39.4716H138.168V41.8595H161.607C162.07 41.8595 162.533 41.8595 163.15 41.5786C163.612 41.2977 163.921 41.0167 164.075 40.4548C164.383 39.612 164.383 38.6288 164.383 37.786V26.5485C164.229 25.7057 164.075 24.7224 163.766 23.8796ZM157.29 36.2408C157.444 37.2241 157.135 38.2074 156.364 38.9097C155.593 39.3311 154.822 39.4716 153.897 39.4716H149.888V21.6321C151.276 23.0368 152.972 24.301 154.977 25.0033C155.748 25.1438 156.364 25.5652 156.981 26.1271C157.29 26.689 157.444 27.3913 157.29 28.0936C157.29 28.5151 157.29 28.796 157.29 28.796C157.29 29.0769 157.29 29.2174 157.29 29.4983V36.2408Z" fill="#A32829"/>
</g>
<defs>
<clipPath id="clip0">
<rect width="165" height="42" fill="white"/>
</clipPath>
</defs>
</svg>
