<svg width="14" height="18" viewBox="0 0 14 18" fill="none" xmlns="http://www.w3.org/2000/svg">
<path fill-rule="evenodd" clip-rule="evenodd" d="M7.34816 14.2236C8.64573 13.5313 13.1249 10.8147 13.1249 6.3C13.1249 2.82061 10.3826 0 6.99988 0C3.61713 0 0.874878 2.82061 0.874878 6.3C0.874878 10.8147 5.35403 13.5313 6.6516 14.2236C6.87285 14.3416 7.12691 14.3416 7.34816 14.2236ZM6.99988 9C8.44963 9 9.62488 7.79117 9.62488 6.3C9.62488 4.80883 8.44963 3.6 6.99988 3.6C5.55013 3.6 4.37488 4.80883 4.37488 6.3C4.37488 7.79117 5.55013 9 6.99988 9Z" fill="white"/>
<path fill-rule="evenodd" clip-rule="evenodd" d="M11.6018 12.5135C11.8899 12.1144 12.4379 12.031 12.8259 12.3273C13.4799 12.8266 14 13.5284 14 14.4C14 15.2716 13.4799 15.9733 12.8259 16.4726C12.1643 16.9778 11.2714 17.3577 10.2727 17.6119C9.26509 17.8683 8.1376 18 7 18C5.8624 18 4.73491 17.8683 3.72733 17.6119C2.72858 17.3577 1.83573 16.9778 1.17406 16.4726C0.520054 15.9733 2.08616e-07 15.2716 0 14.4C-2.08616e-07 13.5284 0.520053 12.8266 1.17406 12.3273C1.56209 12.031 2.11014 12.1144 2.39818 12.5135C2.68622 12.9126 2.60516 13.4764 2.21713 13.7726C1.79597 14.0942 1.75 14.3237 1.75 14.4C1.75 14.4762 1.79597 14.7057 2.21713 15.0273C2.63062 15.343 3.28418 15.6448 4.14767 15.8646C5.00233 16.0821 5.98728 16.2 7 16.2C8.01273 16.2 8.99768 16.0821 9.85233 15.8646C10.7158 15.6448 11.3694 15.343 11.7829 15.0273C12.204 14.7057 12.25 14.4762 12.25 14.4C12.25 14.3237 12.204 14.0942 11.7829 13.7726C11.3948 13.4764 11.3138 12.9126 11.6018 12.5135Z" fill="white"/>
</svg>
