<svg width="16" height="18" viewBox="0 0 16 18" fill="none" xmlns="http://www.w3.org/2000/svg">
<path d="M15.3389 17.2167C15.8534 17.1056 16.1605 16.5614 15.9126 16.0915C15.3354 14.9974 14.4153 14.036 13.2339 13.3056C11.7324 12.3774 9.89264 11.8743 8 11.8743C6.10737 11.8743 4.26761 12.3774 2.76608 13.3056C1.58468 14.036 0.664603 14.9974 0.0873879 16.0915C-0.160522 16.5614 0.146649 17.1056 0.661147 17.2167C5.49937 18.2611 10.5006 18.2611 15.3389 17.2167Z" fill="white"/>
<path d="M12.7765 4.94761C12.7765 7.6801 10.638 9.89522 7.99998 9.89522C5.36201 9.89522 3.22351 7.6801 3.22351 4.94761C3.22351 2.21512 5.36201 0 7.99998 0C10.638 0 12.7765 2.21512 12.7765 4.94761Z" fill="white"/>
</svg>
