<svg width="163" height="36" viewBox="0 0 163 36" fill="none" xmlns="http://www.w3.org/2000/svg">
<path d="M11.8803 24.3542L8.62425 27.8524V35.6015H0V4.60516H8.62425V17.4908L20.5486 4.60516H30.1409L17.5565 18.3321L30.8009 35.6015H20.6806L11.8803 24.3542Z" fill="#414553"/>
<path d="M32.2612 11.6015H40.6214V35.6015H32.2612V11.6015ZM36.4413 8.94465C34.9159 8.94465 33.6839 8.5166 32.7452 7.66052C31.8065 6.80443 31.3372 5.7417 31.3372 4.47232C31.3372 3.20295 31.8065 2.14022 32.7452 1.28413C33.6839 0.428044 34.9159 0 36.4413 0C37.9667 0 39.1987 0.413284 40.1374 1.23985C41.0761 2.0369 41.5455 3.07011 41.5455 4.33948C41.5455 5.6679 41.0761 6.77491 40.1374 7.66052C39.1987 8.5166 37.9667 8.94465 36.4413 8.94465Z" fill="#414553"/>
<path d="M62.511 34.6273C61.807 35.0701 60.9417 35.4096 59.915 35.6458C58.9176 35.8819 57.8469 36 56.7029 36C53.5934 36 51.2027 35.2325 49.5307 33.6974C47.8586 32.1624 47.0226 29.8745 47.0226 26.8339V18.7749H43.5465V12.4871H47.0226V6.24354H55.3828V12.4871H60.839V18.7749H55.3828V26.7454C55.3828 27.6015 55.6028 28.2804 56.0428 28.7823C56.5122 29.2546 57.1282 29.4908 57.8909 29.4908C58.8589 29.4908 59.7096 29.2399 60.443 28.738L62.511 34.6273Z" fill="#414553"/>
<path d="M81.4433 35.8226C78.4219 35.8226 75.6938 35.1436 73.2591 33.7857C70.8537 32.4278 68.9469 30.5532 67.5389 28.1621C66.1602 25.771 65.4708 23.0846 65.4708 20.1031C65.4708 17.1215 66.1602 14.4352 67.5389 12.044C68.9469 9.65287 70.8537 7.77833 73.2591 6.42039C75.6938 5.06246 78.4219 4.38349 81.4433 4.38349C83.6727 4.38349 85.7261 4.7525 87.6035 5.49051C89.4809 6.19899 91.0796 7.26172 92.3996 8.6787L90.9916 10.14C88.5275 7.68977 85.3741 6.46467 81.5313 6.46467C78.9499 6.46467 76.6032 7.05508 74.4911 8.23589C72.379 9.4167 70.7216 11.0551 69.5189 13.151C68.3162 15.2174 67.7149 17.5348 67.7149 20.1031C67.7149 22.6713 68.3162 25.0034 69.5189 27.0994C70.7216 29.1658 72.379 30.7894 74.4911 31.9702C76.6032 33.151 78.9499 33.7414 81.5313 33.7414C85.3447 33.7414 88.4982 32.5016 90.9916 30.0219L92.3996 31.4831C91.0796 32.9001 89.4662 33.9776 87.5595 34.7156C85.6821 35.4536 83.6434 35.8226 81.4433 35.8226Z" fill="#414553"/>
<path d="M99.2119 2.74512H101.412V35.6012H99.2119V2.74512Z" fill="#414553"/>
<path d="M130.793 12.4868V35.6012H128.681V30.6418C127.919 32.2654 126.789 33.5348 125.293 34.4499C123.797 35.3355 122.037 35.7783 120.013 35.7783C117.021 35.7783 114.674 34.937 112.973 33.2543C111.272 31.5717 110.421 29.151 110.421 25.9924V12.4868H112.621V25.8152C112.621 28.413 113.281 30.3909 114.601 31.7488C115.921 33.1067 117.784 33.7857 120.189 33.7857C122.771 33.7857 124.809 32.9739 126.305 31.3503C127.831 29.7267 128.593 27.5422 128.593 24.7968V12.4868H130.793Z" fill="#414553"/>
<path d="M151.648 12.3097C153.789 12.3097 155.725 12.8115 157.456 13.8152C159.187 14.7894 160.536 16.1769 161.504 17.9776C162.501 19.7488 163 21.7709 163 24.044C163 26.3171 162.501 28.3392 161.504 30.1104C160.536 31.8816 159.187 33.2691 157.456 34.2728C155.725 35.2765 153.789 35.7783 151.648 35.7783C149.594 35.7783 147.732 35.2912 146.06 34.3171C144.417 33.3134 143.141 31.9259 142.231 30.1547V35.6012H140.119V2.74512H142.319V17.7562C143.229 16.044 144.505 14.7156 146.148 13.7709C147.79 12.7968 149.624 12.3097 151.648 12.3097ZM151.516 33.7857C153.276 33.7857 154.86 33.3724 156.268 32.5459C157.676 31.7193 158.776 30.568 159.568 29.092C160.389 27.616 160.8 25.9333 160.8 24.044C160.8 22.1547 160.389 20.4721 159.568 18.996C158.776 17.52 157.676 16.3687 156.268 15.5422C154.86 14.7156 153.276 14.3023 151.516 14.3023C149.756 14.3023 148.172 14.7156 146.764 15.5422C145.385 16.3687 144.285 17.52 143.463 18.996C142.671 20.4721 142.275 22.1547 142.275 24.044C142.275 25.9333 142.671 27.616 143.463 29.092C144.285 30.568 145.385 31.7193 146.764 32.5459C148.172 33.3724 149.756 33.7857 151.516 33.7857Z" fill="#414553"/>
</svg>
