<svg width="67" height="14" viewBox="0 0 67 14" fill="none" xmlns="http://www.w3.org/2000/svg">
<path d="M4.87901 9.47109L3.5418 10.8315V13.845H0V1.7909H3.5418V6.80197L8.43888 1.7909H12.3782L7.21009 7.12915L12.6493 13.845H8.49309L4.87901 9.47109Z" fill="#414553"/>
<path d="M13.249 4.51168H16.6824V13.845H13.249V4.51168ZM14.9657 3.47847C14.3392 3.47847 13.8333 3.31201 13.4478 2.97909C13.0623 2.64617 12.8695 2.23288 12.8695 1.73924C12.8695 1.24559 13.0623 0.832308 13.4478 0.499385C13.8333 0.166462 14.3392 0 14.9657 0C15.5921 0 16.0981 0.160722 16.4836 0.482165C16.8691 0.792128 17.0618 1.19393 17.0618 1.68758C17.0618 2.20418 16.8691 2.63469 16.4836 2.97909C16.0981 3.31201 15.5921 3.47847 14.9657 3.47847Z" fill="#414553"/>
<path d="M25.672 13.4662C25.3828 13.6384 25.0274 13.7704 24.6058 13.8622C24.1962 13.9541 23.7565 14 23.2867 14C22.0097 14 21.0279 13.7015 20.3412 13.1046C19.6545 12.5076 19.3112 11.6179 19.3112 10.4354V7.30135H17.8836V4.85609H19.3112V2.42804H22.7446V4.85609H24.9853V7.30135H22.7446V10.401C22.7446 10.7339 22.8349 10.9979 23.0156 11.1931C23.2084 11.3768 23.4613 11.4686 23.7746 11.4686C24.1721 11.4686 24.5215 11.3711 24.8227 11.1759L25.672 13.4662Z" fill="#414553"/>
<path d="M33.5068 13.9311C32.266 13.9311 31.1456 13.6671 30.1457 13.139C29.1579 12.6109 28.3748 11.8819 27.7966 10.952C27.2304 10.0221 26.9473 8.97743 26.9473 7.81793C26.9473 6.65844 27.2304 5.61375 27.7966 4.68386C28.3748 3.75397 29.1579 3.02499 30.1457 2.4969C31.1456 1.96882 32.266 1.70477 33.5068 1.70477C34.4224 1.70477 35.2657 1.84827 36.0367 2.13528C36.8077 2.4108 37.4642 2.82408 38.0064 3.37513L37.4281 3.9434C36.4162 2.99055 35.1211 2.51412 33.543 2.51412C32.4828 2.51412 31.5191 2.74372 30.6517 3.20293C29.7843 3.66213 29.1037 4.29928 28.6097 5.11437C28.1158 5.91798 27.8689 6.81917 27.8689 7.81793C27.8689 8.81671 28.1158 9.72363 28.6097 10.5387C29.1037 11.3423 29.7843 11.9737 30.6517 12.4329C31.5191 12.8921 32.4828 13.1217 33.543 13.1217C35.1091 13.1217 36.4041 12.6396 37.4281 11.6753L38.0064 12.2435C37.4642 12.7946 36.8017 13.2136 36.0186 13.5006C35.2476 13.7876 34.4103 13.9311 33.5068 13.9311Z" fill="#414553"/>
<path d="M40.804 1.06763H41.7075V13.845H40.804V1.06763Z" fill="#414553"/>
<path d="M53.7739 4.85607V13.845H52.9065V11.9163C52.5933 12.5477 52.1295 13.0414 51.5151 13.3973C50.9007 13.7417 50.1779 13.9139 49.3467 13.9139C48.1179 13.9139 47.1541 13.5867 46.4554 12.9323C45.7567 12.278 45.4073 11.3366 45.4073 10.1082V4.85607H46.3108V10.0393C46.3108 11.0496 46.5819 11.8188 47.124 12.3468C47.6661 12.8749 48.4311 13.139 49.4189 13.139C50.4791 13.139 51.3163 12.8233 51.9307 12.1919C52.5572 11.5605 52.8704 10.7109 52.8704 9.64327V4.85607H53.7739Z" fill="#414553"/>
<path d="M62.3383 4.78718C63.2177 4.78718 64.0128 4.98235 64.7236 5.37267C65.4343 5.75151 65.9885 6.29108 66.386 6.99137C66.7956 7.68017 67.0004 8.46656 67.0004 9.35053C67.0004 10.2345 66.7956 11.0209 66.386 11.7097C65.9885 12.3985 65.4343 12.9381 64.7236 13.3284C64.0128 13.7187 63.2177 13.9139 62.3383 13.9139C61.495 13.9139 60.73 13.7245 60.0433 13.3456C59.3687 12.9553 58.8447 12.4157 58.4712 11.7269V13.845H57.6038V1.06763H58.5073V6.90527C58.8808 6.23942 59.4048 5.72281 60.0795 5.35545C60.7541 4.97661 61.507 4.78718 62.3383 4.78718ZM62.2841 13.139C63.0069 13.139 63.6574 12.9782 64.2357 12.6568C64.8139 12.3354 65.2657 11.8876 65.5909 11.3136C65.9283 10.7396 66.0969 10.0853 66.0969 9.35053C66.0969 8.6158 65.9283 7.96144 65.5909 7.38743C65.2657 6.81343 64.8139 6.3657 64.2357 6.04426C63.6574 5.72281 63.0069 5.56209 62.2841 5.56209C61.5612 5.56209 60.9107 5.72281 60.3325 6.04426C59.7663 6.3657 59.3145 6.81343 58.9772 7.38743C58.6519 7.96144 58.4893 8.6158 58.4893 9.35053C58.4893 10.0853 58.6519 10.7396 58.9772 11.3136C59.3145 11.8876 59.7663 12.3354 60.3325 12.6568C60.9107 12.9782 61.5612 13.139 62.2841 13.139Z" fill="#414553"/>
</svg>
